<?xml version="1.0" encoding="UTF-8" standalone="no"?><!DOCTYPE svg PUBLIC "-//W3C//DTD SVG 1.1//EN" "http://www.w3.org/Graphics/SVG/1.1/DTD/svg11.dtd"><svg width="100%" height="100%" viewBox="0 0 48 48" version="1.1" xmlns="http://www.w3.org/2000/svg" xmlns:xlink="http://www.w3.org/1999/xlink" xml:space="preserve" xmlns:serif="http://www.serif.com/" style="fill-rule:evenodd;clip-rule:evenodd;stroke-linejoin:round;stroke-miterlimit:2;"><g><path d="M5,39l-2,0l0,-30l2,0l0,30Zm0,-30l0,-2l2,0l0,2l-2,0Zm2,-2l0,-2l2,0l0,2l-2,0Zm2,-2l0,-2l30,0l0,2l-30,0Zm30,0l2,0l0,2l-2,0l0,-2Zm2,2l2,0l0,2l-2,0l0,-2Zm2,2l2,0l0,30l-2,0l0,-30Zm0,30l0,2l-2,0l0,-2l2,0Zm-2,2l0,2l-2,0l0,-2l2,0Zm-2,2l0,2l-30,0l0,-2l30,0Zm-30,0l-2,0l0,-2l2,0l0,2Zm-2,-2l-2,0l0,-2l2,0l0,2Z"/><path d="M5,32l2,0l0,2l2,0l0,2l2,0l0,2l24,0l0,-2l2,0l0,-2l2,0l0,-2l2,0l0,-23l-2,0l0,-2l2,0l0,2l2,0l0,25l-2,0l0,2l-2,0l0,2l-2,0l0,2l-28,0l0,-2l-2,0l0,-2l-2,0l0,-4Z" style="fill:#e75375;"/><path d="M5,36l2,0l0,2l2,0l0,2l28,0l0,-2l2,0l0,-2l2,0l0,-2l2,0l0,5l-2,0l0,2l-2,0l0,2l-30,0l0,-2l-2,0l0,-2l-2,0l0,-3Z" style="fill:#932b45;"/><path d="M5,9l2,0l0,-2l2,0l0,-2l30,0l0,4l2,0l0,23l-2,0l0,2l-2,0l0,2l-2,0l0,2l-24,0l0,-2l-2,0l0,-2l-2,0l0,-2l-2,0l0,-23Z" style="fill:#ce2950;"/></g><g><path d="M3,9l0,-2l2,0l0,-2l2,0l0,-2l2,0l0.052,-2l29.896,0l0.052,2l2,0l0,2l2,0l0,2l2,0l0,2l2,0l0,30l-2,0l0,2l-2,0l0,2l-2,0l0,2l-2,0l-0.052,2l-29.896,0l-0.052,-2l-2,0l0,-2l-2,0l0,-2l-2,0l0,-2l-2,0l0,-30l2,0Z" style="fill:#fff;"/><path d="M5,39l-2,0l0,-30l2,0l0,30Zm0,-30l0,-2l2,0l0,2l-2,0Zm2,-2l0,-2l2,0l0,2l-2,0Zm2,-2l0,-2l30,0l0,2l-30,0Zm30,0l2,0l0,2l-2,0l0,-2Zm2,2l2,0l0,2l-2,0l0,-2Zm2,2l2,0l0,30l-2,0l0,-30Zm0,30l0,2l-2,0l0,-2l2,0Zm-2,2l0,2l-2,0l0,-2l2,0Zm-2,2l0,2l-30,0l0,-2l30,0Zm-30,0l-2,0l0,-2l2,0l0,2Zm-2,-2l-2,0l0,-2l2,0l0,2Z"/><path d="M5,32l2,0l0,2l2,0l0,2l2,0l0,2l24,0l0,-2l2,0l0,-2l2,0l0,-2l2,0l0,-23l-2,0l0,-2l2,0l0,2l2,0l0,25l-2,0l0,2l-2,0l0,2l-2,0l0,2l-28,0l0,-2l-2,0l0,-2l-2,0l0,-4Z" style="fill:#27d084;"/><path d="M5,36l2,0l0,2l2,0l0,2l28,0l0,-2l2,0l0,-2l2,0l0,-2l2,0l0,5l-2,0l0,2l-2,0l0,2l-30,0l0,-2l-2,0l0,-2l-2,0l0,-3Z" style="fill:#24885b;"/><path d="M5,9l2,0l0,-2l2,0l0,-2l30,0l0,4l2,0l0,23l-2,0l0,2l-2,0l0,2l-2,0l0,2l-24,0l0,-2l-2,0l0,-2l-2,0l0,-2l-2,0l0,-23Z" style="fill:#28ac73;"/></g></svg>