<?xml version="1.0" encoding="UTF-8" standalone="no"?>
<!DOCTYPE svg PUBLIC "-//W3C//DTD SVG 1.1//EN" "http://www.w3.org/Graphics/SVG/1.1/DTD/svg11.dtd">
<svg width="100%" height="100%" viewBox="0 0 48 48" version="1.1" xmlns="http://www.w3.org/2000/svg" xmlns:xlink="http://www.w3.org/1999/xlink" xml:space="preserve" xmlns:serif="http://www.serif.com/" style="fill-rule:evenodd;clip-rule:evenodd;stroke-linejoin:round;stroke-miterlimit:2;">
    <g>
        <path d="M3,9L3,7L5,7L5,5L7,5L7,3L9,3L9.052,1L38.948,1L39,3L41,3L41,5L43,5L43,7L45,7L45,9L47,9L47,39L45,39L45,41L43,41L43,43L41,43L41,45L39,45L38.948,47L9.052,47L9,45L7,45L7,43L5,43L5,41L3,41L3,39L1,39L1,9L3,9Z" style="fill:white;"/>
        <path d="M5,39L3,39L3,9L5,9L5,39ZM5,9L5,7L7,7L7,9L5,9ZM7,7L7,5L9,5L9,7L7,7ZM9,5L9,3L39,3L39,5L9,5ZM39,5L41,5L41,7L39,7L39,5ZM41,7L43,7L43,9L41,9L41,7ZM43,9L45,9L45,39L43,39L43,9ZM43,39L43,41L41,41L41,39L43,39ZM41,41L41,43L39,43L39,41L41,41ZM39,43L39,45L9,45L9,43L39,43ZM9,43L7,43L7,41L9,41L9,43ZM7,41L5,41L5,39L7,39L7,41Z" style="fill:rgb(51,56,59);"/>
        <path d="M5,32L7,32L7,34L9,34L9,36L11,36L11,38L35,38L35,36L37,36L37,34L39,34L39,32L41,32L41,9L39,9L39,7L41,7L41,9L43,9L43,34L41,34L41,36L39,36L39,38L37,38L37,40L9,40L9,38L7,38L7,36L5,36L5,32Z" style="fill:rgb(201,216,226);"/>
        <path d="M5,36L7,36L7,38L9,38L9,40L37,40L37,38L39,38L39,36L41,36L41,34L43,34L43,39L41,39L41,41L39,41L39,43L9,43L9,41L7,41L7,39L5,39L5,36Z" style="fill:rgb(121,142,156);"/>
        <path d="M5,9L7,9L7,7L9,7L9,5L39,5L39,9L41,9L41,32L39,32L39,34L37,34L37,36L35,36L35,38L11,38L11,36L9,36L9,34L7,34L7,32L5,32L5,9Z" style="fill:rgb(178,193,203);"/>
    </g>
</svg>
