<?xml version="1.0" encoding="UTF-8" standalone="no"?><!DOCTYPE svg PUBLIC "-//W3C//DTD SVG 1.1//EN" "http://www.w3.org/Graphics/SVG/1.1/DTD/svg11.dtd"><svg width="100%" height="100%" viewBox="0 0 140 48" version="1.1" xmlns="http://www.w3.org/2000/svg" xmlns:xlink="http://www.w3.org/1999/xlink" xml:space="preserve" xmlns:serif="http://www.serif.com/" style="fill-rule:evenodd;clip-rule:evenodd;stroke-linejoin:round;stroke-miterlimit:2;"><path d="M7,13l0,-2l2,0l0,-2l2,0l0,-2l2,0l0.052,-2l113.896,0l0.052,2l2,0l0,2l2,0l0,2l2,0l0,2l2,0l0,23l-2,0l0,2l-2,0l0,2l-2,0l0,2l-2,0l-0.052,2l-113.896,0l-0.052,-2l-2,0l0,-2l-2,0l0,-2l-2,0l0,-2l-2,0l0,-23l2,0Z" style="fill:#fff;"/><g><rect x="13" y="7" width="114" height="2"/><rect x="127" y="9" width="2" height="2"/><rect x="129" y="11" width="2" height="2"/><rect x="131" y="13" width="2" height="23"/><rect x="129" y="36" width="2" height="2"/><rect x="127" y="38" width="2" height="2"/><rect x="13" y="40" width="114" height="2"/><rect x="11" y="9" width="2" height="2"/><rect x="9" y="11" width="2" height="2"/><rect x="7" y="13" width="2" height="23"/><rect x="9" y="36" width="2" height="2"/><rect x="11" y="38" width="2" height="2"/></g><path d="M9,29l2,0l0,2l2,0l0,2l2,0l0,2l108,0l0,-2l2,0l0,-2l2,0l0,-2l2,0l0,-16l-2,0l0,-2l2,0l0,2l2,0l0,18l-2,0l0,2l-2,0l0,2l-2,0l0,2l-112,0l0,-2l-2,0l0,-2l-2,0l0,-4Z" style="fill:#e75375;"/><path d="M9,33l2,0l0,2l2,0l0,2l112,0l0,-2l2,0l0,-2l2,0l0,-2l2,0l0,5l-2,0l0,2l-2,0l0,2l-114,0l0,-2l-2,0l0,-2l-2,0l0,-3Z" style="fill:#932b45;"/><path d="M9,13l2,0l0,-2l2,0l0,-2l114,0l0,4l2,0l0,16l-2,0l0,2l-2,0l0,2l-2,0l0,2l-108,0l0,-2l-2,0l0,-2l-2,0l0,-2l-2,0l0,-16Z" style="fill:#ce2950;"/></svg>